:SAMPLES-PER-SECOND 30
:FULLY-SPECIFIED
:DEGREES
538
root  -80.648 33.5604 6.26922 3.24829 54.9244 -18.737
RightUpLeg  -28.8338 -18.0899 -7.72333
RightLeg  21.8809 -3.61989 -1.19092
RightFoot  0.274486 0.00602269 -0.069777
RightToes  -43.45 -0.246614 -0.33377
Spine  7.28134 3.32111 -1.17336
Spine1  14.3975 6.69744 -1.99168
HEad  40.2549 -6.28947 10.7113
LeftShoulder1  0 -2.42657e-020 -4.95415e-022
LeftArm  -52.617 45.3884 -82.2102
LeftForeArm  -64.1396 -74.1325 -142.573
LeftHand  14.4061 -33.1613 -46.3771
RightShoulder  0 2.42657e-020 1.07489e-018
RightArm  -52.62 -20.8561 71.5174
RightForeArm  40.3938 26.3387 4.99209
RightHand  -0.286783 24.4892 -0.951619
LeftUpLeg  -9.11898 -26.7551 2.49874
LeftLeg  20.1504 -10.1123 -2.97356
LeftFoot  -12.2137 0.235652 2.20229
LeftToes  22.9329 1.18758e-006 1.19596e-007
539
root  -79.8782 33.2326 8.13455 2.42273 57.9718 -18.5628
RightUpLeg  -32.9351 -19.1718 -8.16824
RightLeg  19.8024 -4.13528 -1.19456
RightFoot  -1.71204 -0.00377269 0.111364
RightToes  -40.5884 -0.2232 -0.318422
Spine  7.41945 2.92866 -1.07129
Spine1  14.589 5.81473 -1.74762
HEad  40.9869 -6.62897 10.3351
LeftShoulder1  0 -2.42657e-020 -4.95415e-022
LeftArm  -48.7893 37.2914 -81.997
LeftForeArm  -55.1864 -74.5097 -141.529
LeftHand  14.0296 -28.4636 -52.1401
RightShoulder  0 2.42657e-020 1.07489e-018
RightArm  -51.2362 -19.0066 71.9159
RightForeArm  34.9656 29.3632 5.68443
RightHand  0.226734 22.2291 1.52453
LeftUpLeg  -5.92314 -26.5629 2.29719
LeftLeg  21.5113 -10.2575 -3.28049
LeftFoot  -13.6033 0.301427 2.52682
LeftToes  20.7117 1.18758e-006 1.19596e-007
540
root  -79.0791 32.7958 10.052 2.26819 60.9572 -18.159
RightUpLeg  -37.3667 -20.2154 -8.13658
RightLeg  17.5009 -2.97602 -0.731538
RightFoot  -2.96051 -0.00531341 0.171971
RightToes  -43.2613 -0.245046 -0.332794
Spine  7.59887 2.31428 -1.09505
Spine1  14.7516 4.44352 -1.7327
HEad  41.403 -6.01706 10.3037
LeftShoulder1  0 -2.42657e-020 -4.95415e-022
LeftArm  -43.7921 27.8209 -80.5062
LeftForeArm  -60.672 -77.9504 -126.329
LeftHand  13.2903 -24.5285 -56.7595
RightShoulder  0 2.42657e-020 1.07489e-018
RightArm  -49.6312 -15.3117 73.0876
RightForeArm  32.4314 31.5638 6.21299
RightHand  -0.128287 20.9372 -0.324379
LeftUpLeg  -3.39986 -26.8251 2.40311
LeftLeg  23.275 -9.70626 -3.43708
LeftFoot  -14.7315 0.34033 2.63225
LeftToes  17.169 1.18758e-006 1.19596e-007
541
root  -78.2136 32.2302 12.0617 2.61328 63.2445 -17.2784
RightUpLeg  -42.0324 -19.8625 -8.16501
RightLeg  16.5192 -2.17598 -0.495401
RightFoot  -4.68908 -0.00573674 0.237468
RightToes  -45.1869 -0.261187 -0.342508
Spine  7.90009 1.66674 -1.15793
Spine1  15.0679 3.03508 -1.94166
HEad  41.5623 -4.28617 10.0146
LeftShoulder1  0 -2.42657e-020 -4.95415e-022
LeftArm  -39.2788 17.8779 -79.0786
LeftForeArm  -100.067 -80.1117 -79.5094
LeftHand  12.5254 -21.6934 -59.9892
RightShoulder  0 2.42657e-020 1.07489e-018
RightArm  -48.2926 -9.83085 75.1809
RightForeArm  30.6829 32.9477 6.55855
RightHand  -0.238222 21.989 -0.856363
LeftUpLeg  -0.629117 -25.7705 2.65488
LeftLeg  24.814 -9.18572 -3.53368
LeftFoot  -15.2833 0.35197 2.62289
LeftToes  11.8633 1.18758e-006 1.19596e-007
542
root  -77.1919 31.5098 14.1407 2.12122 65.7915 -17.0306
RightUpLeg  -46.17 -19.3308 -8.07021
RightLeg  18.6932 -2.29891 -0.616762
RightFoot  -5.48435 -0.00297921 0.315388
RightToes  -47.5497 -0.281425 -0.353679
Spine  8.32845 1.17799 -0.907862
Spine1  15.5274 2.03279 -1.93066
HEad  41.8999 -2.72417 9.67795
LeftShoulder1  0 -2.42657e-020 -4.95415e-022
LeftArm  -33.6156 6.62968 -78.6032
LeftForeArm  -142.521 -70.5193 -28.7832
LeftHand  11.3681 -17.8499 -65.122
RightShoulder  0 2.42657e-020 1.07489e-018
RightArm  -44.6372 -4.20247 76.4044
RightForeArm  29.816 33.3676 6.66574
RightHand  -0.824612 24.5506 -3.4194
LeftUpLeg  2.54111 -25.1448 3.15619
LeftLeg  26.5831 -7.80768 -3.2877
LeftFoot  -15.1022 0.294662 2.22257
LeftToes  3.08445 1.18758e-006 1.19596e-007
